<?xml version="1.0" encoding="utf-8" standalone="no"?>
<!DOCTYPE svg PUBLIC "-//W3C//DTD SVG 1.1//EN"
  "http://www.w3.org/Graphics/SVG/1.1/DTD/svg11.dtd">
<svg height="248.518125pt" version="1.1" viewBox="0 0 1447.045313 248.518125" width="1447.045313pt" xmlns="http://www.w3.org/2000/svg" xmlns:xlink="http://www.w3.org/1999/xlink">
 <metadata>
  <rdf:RDF xmlns:cc="http://creativecommons.org/ns#" xmlns:dc="http://purl.org/dc/elements/1.1/" xmlns:rdf="http://www.w3.org/1999/02/22-rdf-syntax-ns#">
   <cc:Work>
    <dc:type rdf:resource="http://purl.org/dc/dcmitype/StillImage"/>
    <dc:date>2022-08-16T23:02:42.412496</dc:date>
    <dc:format>image/svg+xml</dc:format>
    <dc:creator>
     <cc:Agent>
      <dc:title>Matplotlib v3.4.3, https://matplotlib.org/</dc:title>
     </cc:Agent>
    </dc:creator>
   </cc:Work>
  </rdf:RDF>
 </metadata>
 <defs>
  <style type="text/css">*{stroke-linecap:butt;stroke-linejoin:round;}</style>
 </defs>
 <g id="figure_1">
  <g id="patch_1">
   <path d="M 0 248.518125 
L 1447.045313 248.518125 
L 1447.045313 0 
L 0 0 
z
" style="fill:#ffffff;"/>
  </g>
  <g id="axes_1">
   <g id="patch_2">
    <path d="M 44.845313 224.64 
L 1439.845313 224.64 
L 1439.845313 7.2 
L 44.845313 7.2 
z
" style="fill:#ffffff;"/>
   </g>
   <g id="matplotlib.axis_1">
    <g id="xtick_1">
     <g id="line2d_1">
      <defs>
       <path d="M 0 0 
L 0 3.5 
" id="mfef1bd77e2" style="stroke:#000000;stroke-width:0.8;"/>
      </defs>
      <g>
       <use style="stroke:#000000;stroke-width:0.8;" x="108.254403" xlink:href="#mfef1bd77e2" y="224.64"/>
      </g>
     </g>
     <g id="text_1">
      <!-- 0 -->
      <g transform="translate(105.073153 239.238437)scale(0.1 -0.1)">
       <defs>
        <path d="M 2034 4250 
Q 1547 4250 1301 3770 
Q 1056 3291 1056 2328 
Q 1056 1369 1301 889 
Q 1547 409 2034 409 
Q 2525 409 2770 889 
Q 3016 1369 3016 2328 
Q 3016 3291 2770 3770 
Q 2525 4250 2034 4250 
z
M 2034 4750 
Q 2819 4750 3233 4129 
Q 3647 3509 3647 2328 
Q 3647 1150 3233 529 
Q 2819 -91 2034 -91 
Q 1250 -91 836 529 
Q 422 1150 422 2328 
Q 422 3509 836 4129 
Q 1250 4750 2034 4750 
z
" id="DejaVuSans-30" transform="scale(0.015625)"/>
       </defs>
       <use xlink:href="#DejaVuSans-30"/>
      </g>
     </g>
    </g>
    <g id="xtick_2">
     <g id="line2d_2">
      <g>
       <use style="stroke:#000000;stroke-width:0.8;" x="362.399056" xlink:href="#mfef1bd77e2" y="224.64"/>
      </g>
     </g>
     <g id="text_2">
      <!-- 100 -->
      <g transform="translate(352.855306 239.238437)scale(0.1 -0.1)">
       <defs>
        <path d="M 794 531 
L 1825 531 
L 1825 4091 
L 703 3866 
L 703 4441 
L 1819 4666 
L 2450 4666 
L 2450 531 
L 3481 531 
L 3481 0 
L 794 0 
L 794 531 
z
" id="DejaVuSans-31" transform="scale(0.015625)"/>
       </defs>
       <use xlink:href="#DejaVuSans-31"/>
       <use x="63.623047" xlink:href="#DejaVuSans-30"/>
       <use x="127.246094" xlink:href="#DejaVuSans-30"/>
      </g>
     </g>
    </g>
    <g id="xtick_3">
     <g id="line2d_3">
      <g>
       <use style="stroke:#000000;stroke-width:0.8;" x="616.543709" xlink:href="#mfef1bd77e2" y="224.64"/>
      </g>
     </g>
     <g id="text_3">
      <!-- 200 -->
      <g transform="translate(606.999959 239.238437)scale(0.1 -0.1)">
       <defs>
        <path d="M 1228 531 
L 3431 531 
L 3431 0 
L 469 0 
L 469 531 
Q 828 903 1448 1529 
Q 2069 2156 2228 2338 
Q 2531 2678 2651 2914 
Q 2772 3150 2772 3378 
Q 2772 3750 2511 3984 
Q 2250 4219 1831 4219 
Q 1534 4219 1204 4116 
Q 875 4013 500 3803 
L 500 4441 
Q 881 4594 1212 4672 
Q 1544 4750 1819 4750 
Q 2544 4750 2975 4387 
Q 3406 4025 3406 3419 
Q 3406 3131 3298 2873 
Q 3191 2616 2906 2266 
Q 2828 2175 2409 1742 
Q 1991 1309 1228 531 
z
" id="DejaVuSans-32" transform="scale(0.015625)"/>
       </defs>
       <use xlink:href="#DejaVuSans-32"/>
       <use x="63.623047" xlink:href="#DejaVuSans-30"/>
       <use x="127.246094" xlink:href="#DejaVuSans-30"/>
      </g>
     </g>
    </g>
    <g id="xtick_4">
     <g id="line2d_4">
      <g>
       <use style="stroke:#000000;stroke-width:0.8;" x="870.688362" xlink:href="#mfef1bd77e2" y="224.64"/>
      </g>
     </g>
     <g id="text_4">
      <!-- 300 -->
      <g transform="translate(861.144612 239.238437)scale(0.1 -0.1)">
       <defs>
        <path d="M 2597 2516 
Q 3050 2419 3304 2112 
Q 3559 1806 3559 1356 
Q 3559 666 3084 287 
Q 2609 -91 1734 -91 
Q 1441 -91 1130 -33 
Q 819 25 488 141 
L 488 750 
Q 750 597 1062 519 
Q 1375 441 1716 441 
Q 2309 441 2620 675 
Q 2931 909 2931 1356 
Q 2931 1769 2642 2001 
Q 2353 2234 1838 2234 
L 1294 2234 
L 1294 2753 
L 1863 2753 
Q 2328 2753 2575 2939 
Q 2822 3125 2822 3475 
Q 2822 3834 2567 4026 
Q 2313 4219 1838 4219 
Q 1578 4219 1281 4162 
Q 984 4106 628 3988 
L 628 4550 
Q 988 4650 1302 4700 
Q 1616 4750 1894 4750 
Q 2613 4750 3031 4423 
Q 3450 4097 3450 3541 
Q 3450 3153 3228 2886 
Q 3006 2619 2597 2516 
z
" id="DejaVuSans-33" transform="scale(0.015625)"/>
       </defs>
       <use xlink:href="#DejaVuSans-33"/>
       <use x="63.623047" xlink:href="#DejaVuSans-30"/>
       <use x="127.246094" xlink:href="#DejaVuSans-30"/>
      </g>
     </g>
    </g>
    <g id="xtick_5">
     <g id="line2d_5">
      <g>
       <use style="stroke:#000000;stroke-width:0.8;" x="1124.833015" xlink:href="#mfef1bd77e2" y="224.64"/>
      </g>
     </g>
     <g id="text_5">
      <!-- 400 -->
      <g transform="translate(1115.289265 239.238437)scale(0.1 -0.1)">
       <defs>
        <path d="M 2419 4116 
L 825 1625 
L 2419 1625 
L 2419 4116 
z
M 2253 4666 
L 3047 4666 
L 3047 1625 
L 3713 1625 
L 3713 1100 
L 3047 1100 
L 3047 0 
L 2419 0 
L 2419 1100 
L 313 1100 
L 313 1709 
L 2253 4666 
z
" id="DejaVuSans-34" transform="scale(0.015625)"/>
       </defs>
       <use xlink:href="#DejaVuSans-34"/>
       <use x="63.623047" xlink:href="#DejaVuSans-30"/>
       <use x="127.246094" xlink:href="#DejaVuSans-30"/>
      </g>
     </g>
    </g>
    <g id="xtick_6">
     <g id="line2d_6">
      <g>
       <use style="stroke:#000000;stroke-width:0.8;" x="1378.977668" xlink:href="#mfef1bd77e2" y="224.64"/>
      </g>
     </g>
     <g id="text_6">
      <!-- 500 -->
      <g transform="translate(1369.433918 239.238437)scale(0.1 -0.1)">
       <defs>
        <path d="M 691 4666 
L 3169 4666 
L 3169 4134 
L 1269 4134 
L 1269 2991 
Q 1406 3038 1543 3061 
Q 1681 3084 1819 3084 
Q 2600 3084 3056 2656 
Q 3513 2228 3513 1497 
Q 3513 744 3044 326 
Q 2575 -91 1722 -91 
Q 1428 -91 1123 -41 
Q 819 9 494 109 
L 494 744 
Q 775 591 1075 516 
Q 1375 441 1709 441 
Q 2250 441 2565 725 
Q 2881 1009 2881 1497 
Q 2881 1984 2565 2268 
Q 2250 2553 1709 2553 
Q 1456 2553 1204 2497 
Q 953 2441 691 2322 
L 691 4666 
z
" id="DejaVuSans-35" transform="scale(0.015625)"/>
       </defs>
       <use xlink:href="#DejaVuSans-35"/>
       <use x="63.623047" xlink:href="#DejaVuSans-30"/>
       <use x="127.246094" xlink:href="#DejaVuSans-30"/>
      </g>
     </g>
    </g>
   </g>
   <g id="matplotlib.axis_2">
    <g id="ytick_1">
     <g id="line2d_7">
      <defs>
       <path d="M 0 0 
L -3.5 0 
" id="mbe80333d45" style="stroke:#000000;stroke-width:0.8;"/>
      </defs>
      <g>
       <use style="stroke:#000000;stroke-width:0.8;" x="44.845313" xlink:href="#mbe80333d45" y="214.75832"/>
      </g>
     </g>
     <g id="text_7">
      <!-- −1.00 -->
      <g transform="translate(7.2 218.557538)scale(0.1 -0.1)">
       <defs>
        <path d="M 678 2272 
L 4684 2272 
L 4684 1741 
L 678 1741 
L 678 2272 
z
" id="DejaVuSans-2212" transform="scale(0.015625)"/>
        <path d="M 684 794 
L 1344 794 
L 1344 0 
L 684 0 
L 684 794 
z
" id="DejaVuSans-2e" transform="scale(0.015625)"/>
       </defs>
       <use xlink:href="#DejaVuSans-2212"/>
       <use x="83.789062" xlink:href="#DejaVuSans-31"/>
       <use x="147.412109" xlink:href="#DejaVuSans-2e"/>
       <use x="179.199219" xlink:href="#DejaVuSans-30"/>
       <use x="242.822266" xlink:href="#DejaVuSans-30"/>
      </g>
     </g>
    </g>
    <g id="ytick_2">
     <g id="line2d_8">
      <g>
       <use style="stroke:#000000;stroke-width:0.8;" x="44.845313" xlink:href="#mbe80333d45" y="190.048984"/>
      </g>
     </g>
     <g id="text_8">
      <!-- −0.75 -->
      <g transform="translate(7.2 193.848203)scale(0.1 -0.1)">
       <defs>
        <path d="M 525 4666 
L 3525 4666 
L 3525 4397 
L 1831 0 
L 1172 0 
L 2766 4134 
L 525 4134 
L 525 4666 
z
" id="DejaVuSans-37" transform="scale(0.015625)"/>
       </defs>
       <use xlink:href="#DejaVuSans-2212"/>
       <use x="83.789062" xlink:href="#DejaVuSans-30"/>
       <use x="147.412109" xlink:href="#DejaVuSans-2e"/>
       <use x="179.199219" xlink:href="#DejaVuSans-37"/>
       <use x="242.822266" xlink:href="#DejaVuSans-35"/>
      </g>
     </g>
    </g>
    <g id="ytick_3">
     <g id="line2d_9">
      <g>
       <use style="stroke:#000000;stroke-width:0.8;" x="44.845313" xlink:href="#mbe80333d45" y="165.339649"/>
      </g>
     </g>
     <g id="text_9">
      <!-- −0.50 -->
      <g transform="translate(7.2 169.138867)scale(0.1 -0.1)">
       <use xlink:href="#DejaVuSans-2212"/>
       <use x="83.789062" xlink:href="#DejaVuSans-30"/>
       <use x="147.412109" xlink:href="#DejaVuSans-2e"/>
       <use x="179.199219" xlink:href="#DejaVuSans-35"/>
       <use x="242.822266" xlink:href="#DejaVuSans-30"/>
      </g>
     </g>
    </g>
    <g id="ytick_4">
     <g id="line2d_10">
      <g>
       <use style="stroke:#000000;stroke-width:0.8;" x="44.845313" xlink:href="#mbe80333d45" y="140.630313"/>
      </g>
     </g>
     <g id="text_10">
      <!-- −0.25 -->
      <g transform="translate(7.2 144.429532)scale(0.1 -0.1)">
       <use xlink:href="#DejaVuSans-2212"/>
       <use x="83.789062" xlink:href="#DejaVuSans-30"/>
       <use x="147.412109" xlink:href="#DejaVuSans-2e"/>
       <use x="179.199219" xlink:href="#DejaVuSans-32"/>
       <use x="242.822266" xlink:href="#DejaVuSans-35"/>
      </g>
     </g>
    </g>
    <g id="ytick_5">
     <g id="line2d_11">
      <g>
       <use style="stroke:#000000;stroke-width:0.8;" x="44.845313" xlink:href="#mbe80333d45" y="115.920978"/>
      </g>
     </g>
     <g id="text_11">
      <!-- 0.00 -->
      <g transform="translate(15.579688 119.720197)scale(0.1 -0.1)">
       <use xlink:href="#DejaVuSans-30"/>
       <use x="63.623047" xlink:href="#DejaVuSans-2e"/>
       <use x="95.410156" xlink:href="#DejaVuSans-30"/>
       <use x="159.033203" xlink:href="#DejaVuSans-30"/>
      </g>
     </g>
    </g>
    <g id="ytick_6">
     <g id="line2d_12">
      <g>
       <use style="stroke:#000000;stroke-width:0.8;" x="44.845313" xlink:href="#mbe80333d45" y="91.211643"/>
      </g>
     </g>
     <g id="text_12">
      <!-- 0.25 -->
      <g transform="translate(15.579688 95.010861)scale(0.1 -0.1)">
       <use xlink:href="#DejaVuSans-30"/>
       <use x="63.623047" xlink:href="#DejaVuSans-2e"/>
       <use x="95.410156" xlink:href="#DejaVuSans-32"/>
       <use x="159.033203" xlink:href="#DejaVuSans-35"/>
      </g>
     </g>
    </g>
    <g id="ytick_7">
     <g id="line2d_13">
      <g>
       <use style="stroke:#000000;stroke-width:0.8;" x="44.845313" xlink:href="#mbe80333d45" y="66.502307"/>
      </g>
     </g>
     <g id="text_13">
      <!-- 0.50 -->
      <g transform="translate(15.579688 70.301526)scale(0.1 -0.1)">
       <use xlink:href="#DejaVuSans-30"/>
       <use x="63.623047" xlink:href="#DejaVuSans-2e"/>
       <use x="95.410156" xlink:href="#DejaVuSans-35"/>
       <use x="159.033203" xlink:href="#DejaVuSans-30"/>
      </g>
     </g>
    </g>
    <g id="ytick_8">
     <g id="line2d_14">
      <g>
       <use style="stroke:#000000;stroke-width:0.8;" x="44.845313" xlink:href="#mbe80333d45" y="41.792972"/>
      </g>
     </g>
     <g id="text_14">
      <!-- 0.75 -->
      <g transform="translate(15.579688 45.592191)scale(0.1 -0.1)">
       <use xlink:href="#DejaVuSans-30"/>
       <use x="63.623047" xlink:href="#DejaVuSans-2e"/>
       <use x="95.410156" xlink:href="#DejaVuSans-37"/>
       <use x="159.033203" xlink:href="#DejaVuSans-35"/>
      </g>
     </g>
    </g>
    <g id="ytick_9">
     <g id="line2d_15">
      <g>
       <use style="stroke:#000000;stroke-width:0.8;" x="44.845313" xlink:href="#mbe80333d45" y="17.083636"/>
      </g>
     </g>
     <g id="text_15">
      <!-- 1.00 -->
      <g transform="translate(15.579688 20.882855)scale(0.1 -0.1)">
       <use xlink:href="#DejaVuSans-31"/>
       <use x="63.623047" xlink:href="#DejaVuSans-2e"/>
       <use x="95.410156" xlink:href="#DejaVuSans-30"/>
       <use x="159.033203" xlink:href="#DejaVuSans-30"/>
      </g>
     </g>
    </g>
   </g>
   <g id="line2d_16">
    <path clip-path="url(#p8543463221)" d="M 108.254403 32.752226 
L 110.79585 24.874472 
L 113.337296 20.496406 
L 115.878743 18.353253 
L 118.42019 17.46063 
L 120.961636 17.163385 
L 126.044529 17.08396 
L 136.210315 17.106306 
L 138.751762 17.231858 
L 141.293208 17.691051 
L 143.834655 18.94895 
L 146.376101 21.780132 
L 148.917548 27.284047 
L 151.458994 36.788634 
L 154.000441 51.589731 
L 156.541887 72.50809 
L 159.083334 99.328062 
L 164.166227 161.984769 
L 166.707674 189.681635 
L 169.24912 208.495511 
L 171.790567 214.740693 
L 174.332013 207.134699 
L 176.87346 187.235653 
L 179.414906 158.912323 
L 184.497799 96.416808 
L 187.039246 70.13641 
L 189.580692 49.841681 
L 192.122139 35.61922 
L 194.663585 26.576441 
L 197.205032 21.397218 
L 199.746478 18.767773 
L 202.287925 17.619108 
L 204.829372 17.209625 
L 209.912265 17.084608 
L 222.619497 17.178708 
L 225.160944 17.514775 
L 227.70239 18.497657 
L 230.243837 20.814599 
L 232.785283 25.48221 
L 235.32673 33.785424 
L 237.868176 47.06471 
L 240.409623 66.319769 
L 242.951069 91.667028 
L 245.492516 121.800917 
L 248.033963 153.717303 
L 250.575409 182.972199 
L 253.116856 204.590588 
L 255.658302 214.42756 
L 258.199749 210.478341 
L 260.741195 193.556324 
L 263.282642 167.014819 
L 268.365535 104.274351 
L 270.906981 76.594461 
L 273.448428 54.641195 
L 275.989874 38.856774 
L 278.531321 28.552998 
L 281.072767 22.477875 
L 283.614214 19.285718 
L 286.15566 17.828433 
L 288.697107 17.276059 
L 291.238554 17.116073 
L 301.40434 17.083778 
L 306.487233 17.142395 
L 309.028679 17.382849 
L 311.570126 18.139345 
L 314.111572 20.014638 
L 316.653019 23.93846 
L 319.194465 31.137823 
L 321.735912 42.96949 
L 324.277358 60.572685 
L 326.818805 84.35613 
L 329.360251 113.436632 
L 334.443145 175.715133 
L 336.984591 199.835605 
L 339.526038 213.117813 
L 342.067484 212.884847 
L 344.608931 199.184778 
L 347.150377 174.774196 
L 354.774717 83.468782 
L 357.316163 59.885675 
L 359.85761 42.487081 
L 362.399056 30.83064 
L 364.940503 23.762332 
L 367.481949 19.925192 
L 370.023396 18.100316 
L 372.564842 17.369004 
L 375.106289 17.138801 
L 382.730629 17.083636 
L 390.354968 17.118394 
L 392.896415 17.286086 
L 395.437861 17.858743 
L 397.979308 19.358616 
L 400.520754 22.626786 
L 403.062201 28.820698 
L 405.603647 39.288655 
L 408.145094 55.272322 
L 410.68654 77.43144 
L 413.227987 105.276825 
L 418.31088 168.005507 
L 420.852327 194.299448 
L 423.393773 210.831281 
L 425.93522 214.318079 
L 428.476666 204.04139 
L 431.018113 182.093096 
L 433.559559 152.668846 
L 436.101006 120.746489 
L 438.642452 90.733192 
L 441.183899 65.577076 
L 443.725345 46.52958 
L 446.266792 33.43553 
L 448.808238 25.275666 
L 451.349685 20.706007 
L 453.891131 18.448113 
L 456.432578 17.496065 
L 458.974024 17.173353 
L 464.056918 17.084072 
L 474.222704 17.103154 
L 476.76415 17.216712 
L 479.305597 17.642266 
L 481.847043 18.826508 
L 484.38849 21.521987 
L 486.929936 26.807952 
L 489.471383 36.00317 
L 492.012829 50.417501 
L 494.554276 70.920215 
L 497.095722 97.38229 
L 502.178615 159.940564 
L 504.720062 188.060675 
L 507.261509 207.602328 
L 509.802955 214.756364 
L 512.344402 208.055971 
L 514.885848 188.876059 
L 517.427295 160.964776 
L 522.510188 98.352739 
L 525.051634 71.710786 
L 527.593081 51.000179 
L 530.134527 36.392959 
L 532.675974 27.043805 
L 535.21742 21.649607 
L 537.758867 18.886887 
L 540.300313 17.666243 
L 542.84176 17.224117 
L 547.924653 17.084879 
L 560.631886 17.168245 
L 563.173332 17.47802 
L 565.714779 18.399988 
L 568.256225 20.599961 
L 570.797672 25.073104 
L 573.339118 33.091144 
L 575.880565 46.001143 
L 578.422011 64.841299 
L 580.963458 89.804915 
L 583.504904 119.694326 
L 586.046351 151.617674 
L 588.587797 181.205615 
L 591.129244 203.479025 
L 593.670691 214.193039 
L 596.212137 211.169475 
L 598.753584 195.031584 
L 601.29503 168.990645 
L 606.377923 106.283457 
L 608.91937 78.274892 
L 611.460816 55.910417 
L 614.002263 39.726716 
L 616.543709 29.093153 
L 619.085156 22.778926 
L 621.626602 19.433445 
L 624.168049 17.890048 
L 626.709495 17.296537 
L 629.250942 17.120851 
L 639.416728 17.083737 
L 644.499621 17.13539 
L 647.041068 17.35569 
L 649.582514 18.062471 
L 652.123961 19.83795 
L 654.665407 23.589786 
L 657.206854 30.52857 
L 659.7483 42.011116 
L 662.289747 59.205652 
L 664.831193 82.587537 
L 667.37264 111.374987 
L 672.455533 173.826378 
L 674.996979 198.521881 
L 677.538426 212.636658 
L 680.079873 213.335503 
L 682.621319 200.474207 
L 685.162766 176.648994 
L 687.704212 146.327491 
L 690.245659 114.472327 
L 692.787105 85.249528 
L 695.328552 61.266688 
L 697.869998 43.458375 
L 700.411445 31.450172 
L 702.952891 24.118211 
L 705.494338 20.106334 
L 708.035784 18.179587 
L 710.577231 17.397241 
L 713.118677 17.146177 
L 720.743017 17.083636 
L 728.367357 17.113887 
L 730.908803 17.266445 
L 733.45025 17.799101 
L 735.991696 19.214718 
L 738.533143 22.332152 
L 741.074589 28.29001 
L 743.616036 38.431031 
L 746.157482 54.017032 
L 748.698929 75.763996 
L 751.240375 103.276141 
L 756.323268 166.018765 
L 758.864715 192.802373 
L 761.406161 210.110738 
L 763.947608 214.521448 
L 766.489055 205.126483 
L 769.030501 183.842742 
L 771.571948 154.762855 
L 774.113394 122.857468 
L 776.654841 92.606346 
L 779.196287 67.06937 
L 781.737734 47.606567 
L 784.27918 34.140879 
L 786.820627 25.692784 
L 789.362073 20.925777 
L 791.90352 18.548651 
L 794.444966 17.534181 
L 796.986413 17.184328 
L 802.069306 17.084214 
L 812.235092 17.100379 
L 814.776539 17.202862 
L 817.317985 17.596739 
L 819.859432 18.710658 
L 822.400878 21.275259 
L 824.942325 26.349219 
L 827.483771 35.24106 
L 830.025218 49.272701 
L 832.566664 69.359398 
L 835.108111 95.456384 
L 842.73245 186.401175 
L 845.273897 206.65319 
L 847.815343 214.709358 
L 850.35679 208.920859 
L 852.898237 190.477219 
L 855.439683 163.000356 
L 860.522576 100.308163 
L 863.064023 73.312099 
L 865.605469 52.186176 
L 868.146916 37.190234 
L 870.688362 27.528742 
L 873.229809 21.913596 
L 875.771255 19.012728 
L 878.312702 17.716719 
L 880.854148 17.239953 
L 885.937041 17.085215 
L 898.644274 17.158755 
L 901.185721 17.443875 
L 903.727167 18.307873 
L 906.268614 20.395313 
L 908.81006 24.679716 
L 911.351507 32.418715 
L 913.892953 44.964245 
L 916.4344 63.390565 
L 918.975846 87.965349 
L 921.517293 117.597353 
L 924.058739 149.507916 
L 926.600186 179.406254 
L 929.141632 202.315296 
L 931.683079 213.896371 
L 934.224525 211.801326 
L 936.765972 196.462253 
L 939.307419 170.943501 
L 944.390312 108.30874 
L 946.931758 79.981021 
L 949.473205 57.207546 
L 952.014651 40.621543 
L 954.556098 29.652536 
L 957.097544 23.09309 
L 959.638991 19.589066 
L 962.180437 17.955758 
L 964.721884 17.318776 
L 967.26333 17.126194 
L 974.88767 17.083636 
L 982.51201 17.129098 
L 985.053456 17.330588 
L 987.594903 17.990222 
L 990.136349 19.669928 
L 992.677796 23.255209 
L 995.219242 29.939566 
L 997.760689 41.078385 
L 1000.302135 57.86659 
L 1002.843582 80.843605 
L 1005.385028 109.327165 
L 1010.467921 171.910842 
L 1013.009368 197.160468 
L 1015.550814 212.09483 
L 1018.092261 213.724827 
L 1020.633707 201.714197 
L 1023.175154 178.494743 
L 1025.716601 148.449697 
L 1028.258047 116.552819 
L 1030.799494 87.054201 
L 1033.34094 62.675636 
L 1035.882387 44.455719 
L 1038.423833 32.090571 
L 1040.96528 24.488789 
L 1043.506726 20.29663 
L 1046.048173 18.263825 
L 1048.589619 17.427739 
L 1051.131066 17.154348 
L 1056.213959 17.083872 
L 1066.379745 17.10987 
L 1068.921192 17.248406 
L 1071.462638 17.74327 
L 1074.004085 19.078255 
L 1076.545531 22.050059 
L 1079.086978 27.777926 
L 1081.628424 37.597803 
L 1084.169871 52.789532 
L 1086.711317 74.122776 
L 1089.252764 101.292944 
L 1094.335657 164.011344 
L 1096.877103 191.262652 
L 1099.41855 209.331909 
L 1101.959996 214.662364 
L 1104.501443 206.157903 
L 1107.042889 185.557407 
L 1109.584336 156.844516 
L 1114.667229 94.501108 
L 1117.208676 68.589208 
L 1119.750122 48.710536 
L 1122.291569 34.86865 
L 1124.833015 26.126238 
L 1127.374462 21.156057 
L 1129.915908 18.655116 
L 1132.457355 17.575142 
L 1134.998801 17.196393 
L 1140.081694 17.08439 
L 1152.788927 17.190219 
L 1155.330374 17.554293 
L 1157.87182 18.601124 
L 1160.413267 21.039583 
L 1162.954713 25.907446 
L 1165.49616 34.501937 
L 1168.037606 48.155164 
L 1170.579053 67.825857 
L 1173.120499 93.551068 
L 1175.661946 123.915997 
L 1178.203392 155.805323 
L 1180.744839 184.704537 
L 1183.286285 205.648965 
L 1185.827732 214.599718 
L 1188.369178 209.728567 
L 1190.910625 192.037759 
L 1193.452071 165.017546 
L 1198.534965 102.282304 
L 1201.076411 74.940087 
L 1203.617858 53.399815 
L 1206.159304 38.011392 
L 1208.700751 28.031665 
L 1211.242197 22.189562 
L 1213.783644 19.145573 
L 1216.32509 17.770723 
L 1218.866537 17.257231 
L 1221.407983 17.11182 
L 1234.115216 17.0909 
L 1236.656662 17.150159 
L 1239.198109 17.412198 
L 1241.739556 18.221073 
L 1244.281002 20.200316 
L 1246.822449 24.301633 
L 1249.363895 31.767741 
L 1251.905342 43.953774 
L 1254.446788 61.967672 
L 1256.988235 86.148905 
L 1259.529681 115.511099 
L 1262.071128 147.389494 
L 1264.612574 177.575592 
L 1267.154021 201.100455 
L 1269.695467 213.537853 
L 1272.236914 212.373293 
L 1274.77836 197.84706 
L 1277.319807 172.871862 
L 1284.944147 81.712461 
L 1287.485593 58.532628 
L 1290.02704 41.541566 
L 1292.568486 30.231561 
L 1295.109933 23.420756 
L 1297.651379 19.752876 
L 1300.192826 18.025781 
L 1302.734272 17.342889 
L 1305.275719 17.132162 
L 1312.900058 17.083636 
L 1320.524398 17.123449 
L 1323.065844 17.30743 
L 1325.607291 17.922379 
L 1328.148738 19.510248 
L 1330.690184 22.93434 
L 1333.231631 29.370414 
L 1335.773077 40.170999 
L 1338.314524 56.555494 
L 1340.85597 79.12477 
L 1343.397417 107.294133 
L 1348.48031 169.970039 
L 1351.021756 195.752574 
L 1353.563203 211.492847 
L 1356.104649 214.052458 
L 1358.646096 202.903617 
L 1361.187542 180.30994 
L 1363.728989 150.563969 
L 1366.270435 118.644567 
L 1368.811882 88.882276 
L 1371.353329 64.112456 
L 1373.894775 45.479374 
L 1376.436222 32.752226 
L 1376.436222 32.752226 
" style="fill:none;stroke:#1f77b4;stroke-linecap:square;stroke-width:1.5;"/>
   </g>
   <g id="line2d_17">
    <path clip-path="url(#p8543463221)" d="M 189.580692 43.126661 
L 192.122139 29.932696 
L 194.663585 24.658054 
L 197.205032 22.954671 
L 199.746478 22.461345 
L 202.287925 22.426398 
L 212.453711 23.282544 
L 220.078051 23.292435 
L 225.160944 23.375983 
L 227.70239 23.710431 
L 230.243837 24.703893 
L 232.785283 27.080972 
L 235.32673 31.956653 
L 237.868176 40.851817 
L 240.409623 55.572111 
L 242.951069 77.712009 
L 245.492516 107.383308 
L 248.033963 141.348016 
L 250.575409 172.864433 
L 253.116856 195.532686 
L 255.658302 207.074126 
L 258.199749 208.12683 
L 260.741195 199.229651 
L 263.282642 179.940535 
L 265.824088 150.247227 
L 270.906981 76.575636 
L 273.448428 48.550738 
L 275.989874 32.473827 
L 278.531321 25.564622 
L 281.072767 23.231579 
L 283.614214 22.533812 
L 286.15566 22.405373 
L 288.697107 22.564699 
L 293.78 23.106639 
L 298.862893 23.312547 
L 309.028679 23.340436 
L 311.570126 23.57851 
L 314.111572 24.340143 
L 316.653019 26.256221 
L 319.194465 30.333119 
L 321.735912 37.98712 
L 324.277358 50.974476 
L 326.818805 71.031355 
L 329.360251 98.842199 
L 334.443145 165.120209 
L 336.984591 190.561191 
L 339.526038 205.065934 
L 342.067484 208.82095 
L 344.608931 202.589406 
L 347.150377 186.133392 
L 349.691824 159.089094 
L 352.23327 123.481395 
L 354.774717 85.808864 
L 357.316163 54.862462 
L 359.85761 35.675563 
L 362.399056 26.784576 
L 364.940503 23.613645 
L 367.481949 22.642981 
L 370.023396 22.404607 
L 372.564842 22.503201 
L 380.189182 23.230578 
L 385.272075 23.313325 
L 392.896415 23.317272 
L 395.437861 23.482166 
L 397.979308 24.056407 
L 400.520754 25.58282 
L 403.062201 28.961891 
L 405.603647 35.501308 
L 408.145094 46.884564 
L 410.68654 64.918185 
L 413.227987 90.721047 
L 415.769433 123.053376 
L 418.31088 156.820948 
L 420.852327 184.789164 
L 423.393773 202.291997 
L 425.93522 208.812255 
L 428.476666 205.224053 
L 431.018113 191.560286 
L 433.559559 167.293819 
L 436.101006 133.528052 
L 438.642452 95.54427 
L 441.183899 62.051956 
L 443.725345 39.626737 
L 446.266792 28.402372 
L 448.808238 24.139461 
L 451.349685 22.798691 
L 453.891131 22.427111 
L 456.432578 22.453739 
L 466.598364 23.294827 
L 479.305597 23.413428 
L 481.847043 23.838381 
L 484.38849 25.038871 
L 486.929936 27.813215 
L 489.471383 33.358892 
L 492.012829 43.270594 
L 494.554276 59.37021 
L 497.095722 83.088051 
L 499.637169 114.010629 
L 502.178615 148.091909 
L 504.720062 178.245947 
L 507.261509 198.730564 
L 509.802955 208.0914 
L 512.344402 207.146658 
L 514.885848 196.224898 
L 517.427295 174.797584 
L 519.968741 143.251021 
L 522.510188 105.611829 
L 525.051634 70.070091 
L 527.593081 44.400319 
L 530.134527 30.511262 
L 532.675974 24.859508 
L 535.21742 23.01575 
L 537.758867 22.476414 
L 540.300313 22.4194 
L 545.383206 22.905786 
L 550.4661 23.277625 
L 558.090439 23.293083 
L 563.173332 23.365703 
L 565.714779 23.673623 
L 568.256225 24.604598 
L 570.797672 26.859311 
L 573.339118 31.525402 
L 575.880565 40.098154 
L 578.422011 54.373518 
L 580.963458 75.989044 
L 583.504904 105.213259 
L 586.046351 139.074928 
L 588.587797 170.98643 
L 591.129244 194.365611 
L 593.670691 206.64261 
L 596.212137 208.365999 
L 598.753584 200.138375 
L 601.29503 181.560346 
L 603.836477 152.512946 
L 608.91937 78.82832 
L 611.460816 50.045197 
L 614.002263 33.208661 
L 616.543709 25.837112 
L 619.085156 23.315923 
L 621.626602 22.557347 
L 624.168049 22.403164 
L 626.709495 22.548381 
L 631.792388 23.092283 
L 636.875282 23.311334 
L 647.041068 23.333632 
L 649.582514 23.551422 
L 652.123961 24.262303 
L 654.665407 26.074573 
L 657.206854 29.967849 
L 659.7483 37.331546 
L 662.289747 49.905577 
L 664.831193 69.449722 
L 667.37264 96.769476 
L 672.455533 163.092888 
L 674.996979 189.192485 
L 677.538426 204.445135 
L 680.079873 208.884905 
L 682.621319 203.315492 
L 685.162766 187.561952 
L 687.704212 161.202938 
L 690.245659 126.014991 
L 692.787105 88.201973 
L 695.328552 56.578776 
L 697.869998 36.589913 
L 700.411445 27.148202 
L 702.952891 23.729854 
L 705.494338 22.677079 
L 708.035784 22.407924 
L 710.577231 22.489587 
L 718.20157 23.221912 
L 723.284464 23.313949 
L 730.908803 23.312989 
L 733.45025 23.462666 
L 735.991696 23.996246 
L 738.533143 25.435505 
L 741.074589 28.654985 
L 743.616036 34.934884 
L 746.157482 45.93776 
L 748.698929 63.478573 
L 751.240375 88.764874 
L 753.781822 120.776387 
L 756.323268 154.673666 
L 758.864715 183.223976 
L 761.406161 201.476247 
L 763.947608 208.699321 
L 766.489055 205.771024 
L 769.030501 192.79756 
L 771.571948 169.23742 
L 774.113394 135.994933 
L 776.654841 98.03701 
L 779.196287 63.981596 
L 781.737734 40.740651 
L 784.27918 28.87978 
L 786.820627 24.299023 
L 789.362073 22.846474 
L 791.90352 22.436761 
L 794.444966 22.443624 
L 804.610752 23.291127 
L 817.317985 23.39976 
L 819.859432 23.792642 
L 822.400878 24.920747 
L 824.942325 27.55752 
L 827.483771 32.872882 
L 830.025218 42.437477 
L 832.566664 58.070106 
L 835.108111 81.261907 
L 837.649557 111.783687 
L 840.191004 145.858863 
L 842.73245 176.495482 
L 845.273897 197.715092 
L 847.815343 207.798197 
L 850.35679 207.517212 
L 852.898237 197.273137 
L 855.439683 176.558836 
L 857.98113 145.614527 
L 863.064023 72.194563 
L 865.605469 45.728588 
L 868.146916 31.126623 
L 870.688362 25.077016 
L 873.229809 23.081979 
L 875.771255 22.493452 
L 878.312702 22.413538 
L 883.395595 22.886811 
L 888.478488 23.272299 
L 896.102828 23.293784 
L 901.185721 23.356401 
L 903.727167 23.63946 
L 906.268614 24.511052 
L 908.81006 26.648219 
L 911.351507 31.111407 
L 913.892953 39.369865 
L 916.4344 53.207999 
L 918.975846 74.30114 
L 921.517293 103.065429 
L 926.600186 169.068685 
L 929.141632 193.147943 
L 931.683079 206.164306 
L 934.224525 208.561433 
L 936.765972 201.001101 
L 939.307419 183.132539 
L 941.848865 154.742799 
L 946.931758 81.119618 
L 949.473205 51.595369 
L 952.014651 33.986289 
L 954.556098 26.130397 
L 957.097544 23.407319 
L 959.638991 22.583298 
L 962.180437 22.40228 
L 964.721884 22.532651 
L 969.804777 23.077431 
L 974.88767 23.309879 
L 985.053456 23.327552 
L 987.594903 23.52642 
L 990.136349 24.189217 
L 992.677796 25.902021 
L 995.219242 29.617873 
L 997.760689 36.699088 
L 1000.302135 48.867954 
L 1002.843582 67.903668 
L 1005.385028 94.724332 
L 1010.467921 161.032606 
L 1013.009368 187.773975 
L 1015.550814 203.776111 
L 1018.092261 208.904864 
L 1020.633707 203.996475 
L 1023.175154 188.942582 
L 1025.716601 163.275691 
L 1028.258047 128.535649 
L 1030.799494 90.624011 
L 1033.34094 58.349619 
L 1035.882387 37.552441 
L 1038.423833 27.538079 
L 1040.96528 23.855719 
L 1043.506726 22.714235 
L 1046.048173 22.412754 
L 1048.589619 22.476768 
L 1056.213959 23.212727 
L 1061.296852 23.314462 
L 1068.921192 23.309207 
L 1071.462638 23.444792 
L 1074.004085 23.939998 
L 1076.545531 25.295961 
L 1079.086978 28.361523 
L 1081.628424 34.389363 
L 1084.169871 45.020193 
L 1086.711317 62.074184 
L 1089.252764 86.840163 
L 1091.79421 118.508919 
L 1094.335657 152.501582 
L 1096.877103 181.611157 
L 1099.41855 200.610929 
L 1101.959996 208.541697 
L 1104.501443 206.273682 
L 1107.042889 193.987304 
L 1109.584336 171.136337 
L 1112.125783 138.439171 
L 1114.667229 100.547756 
L 1117.208676 65.96207 
L 1119.750122 41.907019 
L 1122.291569 29.389378 
L 1124.833015 24.471557 
L 1127.374462 22.898375 
L 1129.915908 22.448143 
L 1132.457355 22.434493 
L 1142.623141 23.287027 
L 1155.330374 23.387306 
L 1157.87182 23.750049 
L 1160.413267 24.809174 
L 1162.954713 27.313567 
L 1165.49616 32.405637 
L 1168.037606 41.631401 
L 1170.579053 56.804189 
L 1173.120499 79.469753 
L 1175.661946 109.573999 
L 1178.203392 143.610117 
L 1180.744839 174.701228 
L 1183.286285 196.649156 
L 1185.827732 207.459208 
L 1188.369178 207.843901 
L 1190.910625 198.274646 
L 1193.452071 178.273265 
L 1195.993518 147.947199 
L 1201.076411 74.363704 
L 1203.617858 47.111945 
L 1206.159304 31.780307 
L 1208.700751 25.311667 
L 1211.242197 23.153757 
L 1213.783644 22.512557 
L 1216.32509 22.408843 
L 1218.866537 22.581601 
L 1223.94943 23.120501 
L 1229.032323 23.313514 
L 1239.198109 23.347994 
L 1241.739556 23.607807 
L 1244.281002 24.422985 
L 1246.822449 26.447313 
L 1249.363895 30.714136 
L 1251.905342 38.666378 
L 1254.446788 52.075128 
L 1256.988235 72.648527 
L 1259.529681 100.941279 
L 1264.612574 167.112718 
L 1267.154021 191.87974 
L 1269.695467 205.638885 
L 1272.236914 208.713095 
L 1274.77836 201.818029 
L 1277.319807 184.656901 
L 1279.861253 156.935296 
L 1284.944147 83.447255 
L 1287.485593 53.2012 
L 1290.02704 34.808136 
L 1292.568486 26.445769 
L 1295.109933 23.506355 
L 1297.651379 22.611787 
L 1300.192826 22.402739 
L 1302.734272 22.51757 
L 1310.358612 23.238737 
L 1315.441505 23.31263 
L 1323.065844 23.322121 
L 1325.607291 23.503386 
L 1328.148738 24.120656 
L 1330.690184 25.738211 
L 1333.231631 29.282701 
L 1335.773077 36.089193 
L 1338.314524 47.861119 
L 1340.85597 66.393179 
L 1343.397417 92.707845 
L 1348.48031 158.94129 
L 1351.021756 186.306027 
L 1353.563203 203.05852 
L 1356.104649 208.880699 
L 1358.646096 204.632592 
L 1361.187542 190.27534 
L 1363.728989 165.306305 
L 1366.270435 131.040826 
L 1368.811882 93.072346 
L 1371.353329 60.174289 
L 1373.894775 38.564343 
L 1376.436222 27.955639 
L 1376.436222 27.955639 
" style="fill:none;stroke:#ff7f0e;stroke-linecap:square;stroke-width:1.5;"/>
   </g>
   <g id="patch_3">
    <path d="M 44.845313 224.64 
L 44.845313 7.2 
" style="fill:none;stroke:#000000;stroke-linecap:square;stroke-linejoin:miter;stroke-width:0.8;"/>
   </g>
   <g id="patch_4">
    <path d="M 1439.845313 224.64 
L 1439.845313 7.2 
" style="fill:none;stroke:#000000;stroke-linecap:square;stroke-linejoin:miter;stroke-width:0.8;"/>
   </g>
   <g id="patch_5">
    <path d="M 44.845313 224.64 
L 1439.845312 224.64 
" style="fill:none;stroke:#000000;stroke-linecap:square;stroke-linejoin:miter;stroke-width:0.8;"/>
   </g>
   <g id="patch_6">
    <path d="M 44.845313 7.2 
L 1439.845312 7.2 
" style="fill:none;stroke:#000000;stroke-linecap:square;stroke-linejoin:miter;stroke-width:0.8;"/>
   </g>
   <g id="legend_1">
    <g id="patch_7">
     <path d="M 51.845313 219.64 
L 140.339063 219.64 
Q 142.339063 219.64 142.339063 217.64 
L 142.339063 189.28375 
Q 142.339063 187.28375 140.339063 187.28375 
L 51.845313 187.28375 
Q 49.845313 187.28375 49.845313 189.28375 
L 49.845313 217.64 
Q 49.845313 219.64 51.845313 219.64 
z
" style="fill:#ffffff;opacity:0.8;stroke:#cccccc;stroke-linejoin:miter;"/>
    </g>
    <g id="line2d_18">
     <path d="M 53.845313 195.382187 
L 73.845313 195.382187 
" style="fill:none;stroke:#1f77b4;stroke-linecap:square;stroke-width:1.5;"/>
    </g>
    <g id="line2d_19"/>
    <g id="text_16">
     <!-- actual data -->
     <g transform="translate(81.845313 198.882187)scale(0.1 -0.1)">
      <defs>
       <path d="M 2194 1759 
Q 1497 1759 1228 1600 
Q 959 1441 959 1056 
Q 959 750 1161 570 
Q 1363 391 1709 391 
Q 2188 391 2477 730 
Q 2766 1069 2766 1631 
L 2766 1759 
L 2194 1759 
z
M 3341 1997 
L 3341 0 
L 2766 0 
L 2766 531 
Q 2569 213 2275 61 
Q 1981 -91 1556 -91 
Q 1019 -91 701 211 
Q 384 513 384 1019 
Q 384 1609 779 1909 
Q 1175 2209 1959 2209 
L 2766 2209 
L 2766 2266 
Q 2766 2663 2505 2880 
Q 2244 3097 1772 3097 
Q 1472 3097 1187 3025 
Q 903 2953 641 2809 
L 641 3341 
Q 956 3463 1253 3523 
Q 1550 3584 1831 3584 
Q 2591 3584 2966 3190 
Q 3341 2797 3341 1997 
z
" id="DejaVuSans-61" transform="scale(0.015625)"/>
       <path d="M 3122 3366 
L 3122 2828 
Q 2878 2963 2633 3030 
Q 2388 3097 2138 3097 
Q 1578 3097 1268 2742 
Q 959 2388 959 1747 
Q 959 1106 1268 751 
Q 1578 397 2138 397 
Q 2388 397 2633 464 
Q 2878 531 3122 666 
L 3122 134 
Q 2881 22 2623 -34 
Q 2366 -91 2075 -91 
Q 1284 -91 818 406 
Q 353 903 353 1747 
Q 353 2603 823 3093 
Q 1294 3584 2113 3584 
Q 2378 3584 2631 3529 
Q 2884 3475 3122 3366 
z
" id="DejaVuSans-63" transform="scale(0.015625)"/>
       <path d="M 1172 4494 
L 1172 3500 
L 2356 3500 
L 2356 3053 
L 1172 3053 
L 1172 1153 
Q 1172 725 1289 603 
Q 1406 481 1766 481 
L 2356 481 
L 2356 0 
L 1766 0 
Q 1100 0 847 248 
Q 594 497 594 1153 
L 594 3053 
L 172 3053 
L 172 3500 
L 594 3500 
L 594 4494 
L 1172 4494 
z
" id="DejaVuSans-74" transform="scale(0.015625)"/>
       <path d="M 544 1381 
L 544 3500 
L 1119 3500 
L 1119 1403 
Q 1119 906 1312 657 
Q 1506 409 1894 409 
Q 2359 409 2629 706 
Q 2900 1003 2900 1516 
L 2900 3500 
L 3475 3500 
L 3475 0 
L 2900 0 
L 2900 538 
Q 2691 219 2414 64 
Q 2138 -91 1772 -91 
Q 1169 -91 856 284 
Q 544 659 544 1381 
z
M 1991 3584 
L 1991 3584 
z
" id="DejaVuSans-75" transform="scale(0.015625)"/>
       <path d="M 603 4863 
L 1178 4863 
L 1178 0 
L 603 0 
L 603 4863 
z
" id="DejaVuSans-6c" transform="scale(0.015625)"/>
       <path id="DejaVuSans-20" transform="scale(0.015625)"/>
       <path d="M 2906 2969 
L 2906 4863 
L 3481 4863 
L 3481 0 
L 2906 0 
L 2906 525 
Q 2725 213 2448 61 
Q 2172 -91 1784 -91 
Q 1150 -91 751 415 
Q 353 922 353 1747 
Q 353 2572 751 3078 
Q 1150 3584 1784 3584 
Q 2172 3584 2448 3432 
Q 2725 3281 2906 2969 
z
M 947 1747 
Q 947 1113 1208 752 
Q 1469 391 1925 391 
Q 2381 391 2643 752 
Q 2906 1113 2906 1747 
Q 2906 2381 2643 2742 
Q 2381 3103 1925 3103 
Q 1469 3103 1208 2742 
Q 947 2381 947 1747 
z
" id="DejaVuSans-64" transform="scale(0.015625)"/>
      </defs>
      <use xlink:href="#DejaVuSans-61"/>
      <use x="61.279297" xlink:href="#DejaVuSans-63"/>
      <use x="116.259766" xlink:href="#DejaVuSans-74"/>
      <use x="155.46875" xlink:href="#DejaVuSans-75"/>
      <use x="218.847656" xlink:href="#DejaVuSans-61"/>
      <use x="280.126953" xlink:href="#DejaVuSans-6c"/>
      <use x="307.910156" xlink:href="#DejaVuSans-20"/>
      <use x="339.697266" xlink:href="#DejaVuSans-64"/>
      <use x="403.173828" xlink:href="#DejaVuSans-61"/>
      <use x="464.453125" xlink:href="#DejaVuSans-74"/>
      <use x="503.662109" xlink:href="#DejaVuSans-61"/>
     </g>
    </g>
    <g id="line2d_20">
     <path d="M 53.845313 210.060312 
L 73.845313 210.060312 
" style="fill:none;stroke:#ff7f0e;stroke-linecap:square;stroke-width:1.5;"/>
    </g>
    <g id="line2d_21"/>
    <g id="text_17">
     <!-- predicted -->
     <g transform="translate(81.845313 213.560312)scale(0.1 -0.1)">
      <defs>
       <path d="M 1159 525 
L 1159 -1331 
L 581 -1331 
L 581 3500 
L 1159 3500 
L 1159 2969 
Q 1341 3281 1617 3432 
Q 1894 3584 2278 3584 
Q 2916 3584 3314 3078 
Q 3713 2572 3713 1747 
Q 3713 922 3314 415 
Q 2916 -91 2278 -91 
Q 1894 -91 1617 61 
Q 1341 213 1159 525 
z
M 3116 1747 
Q 3116 2381 2855 2742 
Q 2594 3103 2138 3103 
Q 1681 3103 1420 2742 
Q 1159 2381 1159 1747 
Q 1159 1113 1420 752 
Q 1681 391 2138 391 
Q 2594 391 2855 752 
Q 3116 1113 3116 1747 
z
" id="DejaVuSans-70" transform="scale(0.015625)"/>
       <path d="M 2631 2963 
Q 2534 3019 2420 3045 
Q 2306 3072 2169 3072 
Q 1681 3072 1420 2755 
Q 1159 2438 1159 1844 
L 1159 0 
L 581 0 
L 581 3500 
L 1159 3500 
L 1159 2956 
Q 1341 3275 1631 3429 
Q 1922 3584 2338 3584 
Q 2397 3584 2469 3576 
Q 2541 3569 2628 3553 
L 2631 2963 
z
" id="DejaVuSans-72" transform="scale(0.015625)"/>
       <path d="M 3597 1894 
L 3597 1613 
L 953 1613 
Q 991 1019 1311 708 
Q 1631 397 2203 397 
Q 2534 397 2845 478 
Q 3156 559 3463 722 
L 3463 178 
Q 3153 47 2828 -22 
Q 2503 -91 2169 -91 
Q 1331 -91 842 396 
Q 353 884 353 1716 
Q 353 2575 817 3079 
Q 1281 3584 2069 3584 
Q 2775 3584 3186 3129 
Q 3597 2675 3597 1894 
z
M 3022 2063 
Q 3016 2534 2758 2815 
Q 2500 3097 2075 3097 
Q 1594 3097 1305 2825 
Q 1016 2553 972 2059 
L 3022 2063 
z
" id="DejaVuSans-65" transform="scale(0.015625)"/>
       <path d="M 603 3500 
L 1178 3500 
L 1178 0 
L 603 0 
L 603 3500 
z
M 603 4863 
L 1178 4863 
L 1178 4134 
L 603 4134 
L 603 4863 
z
" id="DejaVuSans-69" transform="scale(0.015625)"/>
      </defs>
      <use xlink:href="#DejaVuSans-70"/>
      <use x="63.476562" xlink:href="#DejaVuSans-72"/>
      <use x="102.339844" xlink:href="#DejaVuSans-65"/>
      <use x="163.863281" xlink:href="#DejaVuSans-64"/>
      <use x="227.339844" xlink:href="#DejaVuSans-69"/>
      <use x="255.123047" xlink:href="#DejaVuSans-63"/>
      <use x="310.103516" xlink:href="#DejaVuSans-74"/>
      <use x="349.3125" xlink:href="#DejaVuSans-65"/>
      <use x="410.835938" xlink:href="#DejaVuSans-64"/>
     </g>
    </g>
   </g>
  </g>
 </g>
 <defs>
  <clipPath id="p8543463221">
   <rect height="217.44" width="1395" x="44.845313" y="7.2"/>
  </clipPath>
 </defs>
</svg>
