<?xml version="1.0" encoding="utf-8" standalone="no"?>
<!DOCTYPE svg PUBLIC "-//W3C//DTD SVG 1.1//EN"
  "http://www.w3.org/Graphics/SVG/1.1/DTD/svg11.dtd">
<svg height="207.83625pt" version="1.1" viewBox="0 0 1454.360938 207.83625" width="1454.360938pt" xmlns="http://www.w3.org/2000/svg" xmlns:xlink="http://www.w3.org/1999/xlink">
 <metadata>
  <rdf:RDF xmlns:cc="http://creativecommons.org/ns#" xmlns:dc="http://purl.org/dc/elements/1.1/" xmlns:rdf="http://www.w3.org/1999/02/22-rdf-syntax-ns#">
   <cc:Work>
    <dc:type rdf:resource="http://purl.org/dc/dcmitype/StillImage"/>
    <dc:date>2022-08-16T23:02:17.079019</dc:date>
    <dc:format>image/svg+xml</dc:format>
    <dc:creator>
     <cc:Agent>
      <dc:title>Matplotlib v3.4.3, https://matplotlib.org/</dc:title>
     </cc:Agent>
    </dc:creator>
   </cc:Work>
  </rdf:RDF>
 </metadata>
 <defs>
  <style type="text/css">*{stroke-linecap:butt;stroke-linejoin:round;}</style>
 </defs>
 <g id="figure_1">
  <g id="patch_1">
   <path d="M 0 207.83625 
L 1454.360938 207.83625 
L 1454.360938 0 
L 0 0 
z
" style="fill:#ffffff;"/>
  </g>
  <g id="axes_1">
   <g id="patch_2">
    <path d="M 52.160938 170.28 
L 1447.160938 170.28 
L 1447.160938 7.2 
L 52.160938 7.2 
z
" style="fill:#ffffff;"/>
   </g>
   <g id="matplotlib.axis_1">
    <g id="xtick_1">
     <g id="line2d_1">
      <defs>
       <path d="M 0 0 
L 0 3.5 
" id="m07b6b54b36" style="stroke:#000000;stroke-width:0.8;"/>
      </defs>
      <g>
       <use style="stroke:#000000;stroke-width:0.8;" x="115.570028" xlink:href="#m07b6b54b36" y="170.28"/>
      </g>
     </g>
     <g id="text_1">
      <!-- 0 -->
      <g transform="translate(112.388778 184.878438)scale(0.1 -0.1)">
       <defs>
        <path d="M 2034 4250 
Q 1547 4250 1301 3770 
Q 1056 3291 1056 2328 
Q 1056 1369 1301 889 
Q 1547 409 2034 409 
Q 2525 409 2770 889 
Q 3016 1369 3016 2328 
Q 3016 3291 2770 3770 
Q 2525 4250 2034 4250 
z
M 2034 4750 
Q 2819 4750 3233 4129 
Q 3647 3509 3647 2328 
Q 3647 1150 3233 529 
Q 2819 -91 2034 -91 
Q 1250 -91 836 529 
Q 422 1150 422 2328 
Q 422 3509 836 4129 
Q 1250 4750 2034 4750 
z
" id="DejaVuSans-30" transform="scale(0.015625)"/>
       </defs>
       <use xlink:href="#DejaVuSans-30"/>
      </g>
     </g>
    </g>
    <g id="xtick_2">
     <g id="line2d_2">
      <g>
       <use style="stroke:#000000;stroke-width:0.8;" x="384.686569" xlink:href="#m07b6b54b36" y="170.28"/>
      </g>
     </g>
     <g id="text_2">
      <!-- 20 -->
      <g transform="translate(378.324069 184.878438)scale(0.1 -0.1)">
       <defs>
        <path d="M 1228 531 
L 3431 531 
L 3431 0 
L 469 0 
L 469 531 
Q 828 903 1448 1529 
Q 2069 2156 2228 2338 
Q 2531 2678 2651 2914 
Q 2772 3150 2772 3378 
Q 2772 3750 2511 3984 
Q 2250 4219 1831 4219 
Q 1534 4219 1204 4116 
Q 875 4013 500 3803 
L 500 4441 
Q 881 4594 1212 4672 
Q 1544 4750 1819 4750 
Q 2544 4750 2975 4387 
Q 3406 4025 3406 3419 
Q 3406 3131 3298 2873 
Q 3191 2616 2906 2266 
Q 2828 2175 2409 1742 
Q 1991 1309 1228 531 
z
" id="DejaVuSans-32" transform="scale(0.015625)"/>
       </defs>
       <use xlink:href="#DejaVuSans-32"/>
       <use x="63.623047" xlink:href="#DejaVuSans-30"/>
      </g>
     </g>
    </g>
    <g id="xtick_3">
     <g id="line2d_3">
      <g>
       <use style="stroke:#000000;stroke-width:0.8;" x="653.803109" xlink:href="#m07b6b54b36" y="170.28"/>
      </g>
     </g>
     <g id="text_3">
      <!-- 40 -->
      <g transform="translate(647.440609 184.878438)scale(0.1 -0.1)">
       <defs>
        <path d="M 2419 4116 
L 825 1625 
L 2419 1625 
L 2419 4116 
z
M 2253 4666 
L 3047 4666 
L 3047 1625 
L 3713 1625 
L 3713 1100 
L 3047 1100 
L 3047 0 
L 2419 0 
L 2419 1100 
L 313 1100 
L 313 1709 
L 2253 4666 
z
" id="DejaVuSans-34" transform="scale(0.015625)"/>
       </defs>
       <use xlink:href="#DejaVuSans-34"/>
       <use x="63.623047" xlink:href="#DejaVuSans-30"/>
      </g>
     </g>
    </g>
    <g id="xtick_4">
     <g id="line2d_4">
      <g>
       <use style="stroke:#000000;stroke-width:0.8;" x="922.919649" xlink:href="#m07b6b54b36" y="170.28"/>
      </g>
     </g>
     <g id="text_4">
      <!-- 60 -->
      <g transform="translate(916.557149 184.878438)scale(0.1 -0.1)">
       <defs>
        <path d="M 2113 2584 
Q 1688 2584 1439 2293 
Q 1191 2003 1191 1497 
Q 1191 994 1439 701 
Q 1688 409 2113 409 
Q 2538 409 2786 701 
Q 3034 994 3034 1497 
Q 3034 2003 2786 2293 
Q 2538 2584 2113 2584 
z
M 3366 4563 
L 3366 3988 
Q 3128 4100 2886 4159 
Q 2644 4219 2406 4219 
Q 1781 4219 1451 3797 
Q 1122 3375 1075 2522 
Q 1259 2794 1537 2939 
Q 1816 3084 2150 3084 
Q 2853 3084 3261 2657 
Q 3669 2231 3669 1497 
Q 3669 778 3244 343 
Q 2819 -91 2113 -91 
Q 1303 -91 875 529 
Q 447 1150 447 2328 
Q 447 3434 972 4092 
Q 1497 4750 2381 4750 
Q 2619 4750 2861 4703 
Q 3103 4656 3366 4563 
z
" id="DejaVuSans-36" transform="scale(0.015625)"/>
       </defs>
       <use xlink:href="#DejaVuSans-36"/>
       <use x="63.623047" xlink:href="#DejaVuSans-30"/>
      </g>
     </g>
    </g>
    <g id="xtick_5">
     <g id="line2d_5">
      <g>
       <use style="stroke:#000000;stroke-width:0.8;" x="1192.036189" xlink:href="#m07b6b54b36" y="170.28"/>
      </g>
     </g>
     <g id="text_5">
      <!-- 80 -->
      <g transform="translate(1185.673689 184.878438)scale(0.1 -0.1)">
       <defs>
        <path d="M 2034 2216 
Q 1584 2216 1326 1975 
Q 1069 1734 1069 1313 
Q 1069 891 1326 650 
Q 1584 409 2034 409 
Q 2484 409 2743 651 
Q 3003 894 3003 1313 
Q 3003 1734 2745 1975 
Q 2488 2216 2034 2216 
z
M 1403 2484 
Q 997 2584 770 2862 
Q 544 3141 544 3541 
Q 544 4100 942 4425 
Q 1341 4750 2034 4750 
Q 2731 4750 3128 4425 
Q 3525 4100 3525 3541 
Q 3525 3141 3298 2862 
Q 3072 2584 2669 2484 
Q 3125 2378 3379 2068 
Q 3634 1759 3634 1313 
Q 3634 634 3220 271 
Q 2806 -91 2034 -91 
Q 1263 -91 848 271 
Q 434 634 434 1313 
Q 434 1759 690 2068 
Q 947 2378 1403 2484 
z
M 1172 3481 
Q 1172 3119 1398 2916 
Q 1625 2713 2034 2713 
Q 2441 2713 2670 2916 
Q 2900 3119 2900 3481 
Q 2900 3844 2670 4047 
Q 2441 4250 2034 4250 
Q 1625 4250 1398 4047 
Q 1172 3844 1172 3481 
z
" id="DejaVuSans-38" transform="scale(0.015625)"/>
       </defs>
       <use xlink:href="#DejaVuSans-38"/>
       <use x="63.623047" xlink:href="#DejaVuSans-30"/>
      </g>
     </g>
    </g>
    <g id="text_6">
     <!-- t -->
     <g transform="translate(747.700781 198.556563)scale(0.1 -0.1)">
      <defs>
       <path d="M 1172 4494 
L 1172 3500 
L 2356 3500 
L 2356 3053 
L 1172 3053 
L 1172 1153 
Q 1172 725 1289 603 
Q 1406 481 1766 481 
L 2356 481 
L 2356 0 
L 1766 0 
Q 1100 0 847 248 
Q 594 497 594 1153 
L 594 3053 
L 172 3053 
L 172 3500 
L 594 3500 
L 594 4494 
L 1172 4494 
z
" id="DejaVuSans-74" transform="scale(0.015625)"/>
      </defs>
      <use xlink:href="#DejaVuSans-74"/>
     </g>
    </g>
   </g>
   <g id="matplotlib.axis_2">
    <g id="ytick_1">
     <g id="line2d_6">
      <defs>
       <path d="M 0 0 
L -3.5 0 
" id="m889638e1f0" style="stroke:#000000;stroke-width:0.8;"/>
      </defs>
      <g>
       <use style="stroke:#000000;stroke-width:0.8;" x="52.160938" xlink:href="#m889638e1f0" y="162.868742"/>
      </g>
     </g>
     <g id="text_7">
      <!-- −1.0 -->
      <g transform="translate(20.878125 166.667961)scale(0.1 -0.1)">
       <defs>
        <path d="M 678 2272 
L 4684 2272 
L 4684 1741 
L 678 1741 
L 678 2272 
z
" id="DejaVuSans-2212" transform="scale(0.015625)"/>
        <path d="M 794 531 
L 1825 531 
L 1825 4091 
L 703 3866 
L 703 4441 
L 1819 4666 
L 2450 4666 
L 2450 531 
L 3481 531 
L 3481 0 
L 794 0 
L 794 531 
z
" id="DejaVuSans-31" transform="scale(0.015625)"/>
        <path d="M 684 794 
L 1344 794 
L 1344 0 
L 684 0 
L 684 794 
z
" id="DejaVuSans-2e" transform="scale(0.015625)"/>
       </defs>
       <use xlink:href="#DejaVuSans-2212"/>
       <use x="83.789062" xlink:href="#DejaVuSans-31"/>
       <use x="147.412109" xlink:href="#DejaVuSans-2e"/>
       <use x="179.199219" xlink:href="#DejaVuSans-30"/>
      </g>
     </g>
    </g>
    <g id="ytick_2">
     <g id="line2d_7">
      <g>
       <use style="stroke:#000000;stroke-width:0.8;" x="52.160938" xlink:href="#m889638e1f0" y="125.804738"/>
      </g>
     </g>
     <g id="text_8">
      <!-- −0.5 -->
      <g transform="translate(20.878125 129.603957)scale(0.1 -0.1)">
       <defs>
        <path d="M 691 4666 
L 3169 4666 
L 3169 4134 
L 1269 4134 
L 1269 2991 
Q 1406 3038 1543 3061 
Q 1681 3084 1819 3084 
Q 2600 3084 3056 2656 
Q 3513 2228 3513 1497 
Q 3513 744 3044 326 
Q 2575 -91 1722 -91 
Q 1428 -91 1123 -41 
Q 819 9 494 109 
L 494 744 
Q 775 591 1075 516 
Q 1375 441 1709 441 
Q 2250 441 2565 725 
Q 2881 1009 2881 1497 
Q 2881 1984 2565 2268 
Q 2250 2553 1709 2553 
Q 1456 2553 1204 2497 
Q 953 2441 691 2322 
L 691 4666 
z
" id="DejaVuSans-35" transform="scale(0.015625)"/>
       </defs>
       <use xlink:href="#DejaVuSans-2212"/>
       <use x="83.789062" xlink:href="#DejaVuSans-30"/>
       <use x="147.412109" xlink:href="#DejaVuSans-2e"/>
       <use x="179.199219" xlink:href="#DejaVuSans-35"/>
      </g>
     </g>
    </g>
    <g id="ytick_3">
     <g id="line2d_8">
      <g>
       <use style="stroke:#000000;stroke-width:0.8;" x="52.160938" xlink:href="#m889638e1f0" y="88.740735"/>
      </g>
     </g>
     <g id="text_9">
      <!-- 0.0 -->
      <g transform="translate(29.257813 92.539953)scale(0.1 -0.1)">
       <use xlink:href="#DejaVuSans-30"/>
       <use x="63.623047" xlink:href="#DejaVuSans-2e"/>
       <use x="95.410156" xlink:href="#DejaVuSans-30"/>
      </g>
     </g>
    </g>
    <g id="ytick_4">
     <g id="line2d_9">
      <g>
       <use style="stroke:#000000;stroke-width:0.8;" x="52.160938" xlink:href="#m889638e1f0" y="51.676731"/>
      </g>
     </g>
     <g id="text_10">
      <!-- 0.5 -->
      <g transform="translate(29.257813 55.47595)scale(0.1 -0.1)">
       <use xlink:href="#DejaVuSans-30"/>
       <use x="63.623047" xlink:href="#DejaVuSans-2e"/>
       <use x="95.410156" xlink:href="#DejaVuSans-35"/>
      </g>
     </g>
    </g>
    <g id="ytick_5">
     <g id="line2d_10">
      <g>
       <use style="stroke:#000000;stroke-width:0.8;" x="52.160938" xlink:href="#m889638e1f0" y="14.612727"/>
      </g>
     </g>
     <g id="text_11">
      <!-- 1.0 -->
      <g transform="translate(29.257813 18.411946)scale(0.1 -0.1)">
       <use xlink:href="#DejaVuSans-31"/>
       <use x="63.623047" xlink:href="#DejaVuSans-2e"/>
       <use x="95.410156" xlink:href="#DejaVuSans-30"/>
      </g>
     </g>
    </g>
    <g id="text_12">
     <!-- x -->
     <g transform="translate(14.798438 91.699375)rotate(-90)scale(0.1 -0.1)">
      <defs>
       <path d="M 3513 3500 
L 2247 1797 
L 3578 0 
L 2900 0 
L 1881 1375 
L 863 0 
L 184 0 
L 1544 1831 
L 300 3500 
L 978 3500 
L 1906 2253 
L 2834 3500 
L 3513 3500 
z
" id="DejaVuSans-78" transform="scale(0.015625)"/>
      </defs>
      <use xlink:href="#DejaVuSans-78"/>
     </g>
    </g>
   </g>
   <g id="line2d_11">
    <path clip-path="url(#p9699aa1e5e)" d="M 115.570028 26.364167 
L 118.111475 20.455853 
L 120.652921 17.172305 
L 123.194368 15.564939 
L 125.735815 14.895474 
L 128.277261 14.672538 
L 135.901601 14.612727 
L 143.52594 14.629731 
L 146.067387 14.723895 
L 148.608833 15.068288 
L 151.15028 16.011711 
L 153.691726 18.135097 
L 156.233173 22.263037 
L 158.774619 29.391476 
L 161.316066 40.492299 
L 163.857512 56.181068 
L 166.398959 76.296048 
L 171.481852 123.288579 
L 174.023299 144.061227 
L 176.564745 158.171637 
L 179.106192 162.855521 
L 181.647638 157.151027 
L 184.189085 142.226743 
L 186.730531 120.984244 
L 191.813424 74.112606 
L 194.354871 54.402309 
L 196.896317 39.181261 
L 199.437764 28.514415 
L 201.97921 21.732331 
L 204.520657 17.847912 
L 207.062103 15.875831 
L 209.60355 15.014329 
L 212.144997 14.70722 
L 217.22789 14.613457 
L 229.935122 14.684033 
L 232.476569 14.936082 
L 235.018015 15.673242 
L 237.559462 17.410949 
L 240.100908 20.911658 
L 242.642355 27.139068 
L 245.183801 37.098535 
L 247.725248 51.539829 
L 250.266694 70.550272 
L 252.808141 93.150689 
L 255.349588 117.087978 
L 257.891034 139.029152 
L 260.432481 155.242942 
L 262.973927 162.620672 
L 265.515374 159.658757 
L 268.05682 146.967244 
L 270.598267 127.061116 
L 275.68116 80.005764 
L 278.222606 59.245846 
L 280.764053 42.780899 
L 283.305499 30.94258 
L 285.846946 23.21475 
L 288.388392 18.658408 
L 290.929839 16.264288 
L 293.471285 15.171325 
L 296.012732 14.757045 
L 301.095625 14.614578 
L 313.802858 14.656794 
L 316.344304 14.837137 
L 318.885751 15.404511 
L 321.427197 16.810979 
L 323.968644 19.753844 
L 326.51009 25.153368 
L 329.051537 34.027116 
L 331.592983 47.229516 
L 334.13443 65.067099 
L 336.675876 86.877475 
L 341.75877 133.586351 
L 344.300216 151.676704 
L 346.841663 161.638363 
L 349.383109 161.463638 
L 351.924556 151.188586 
L 354.466002 132.88065 
L 362.090342 64.401587 
L 364.631788 46.714256 
L 367.173235 33.665311 
L 369.714681 24.922979 
L 372.256128 19.62175 
L 374.797574 16.743893 
L 377.339021 15.375238 
L 379.880467 14.826752 
L 382.421914 14.654101 
L 392.5877 14.612749 
L 397.670593 14.638797 
L 400.21204 14.764563 
L 402.753486 15.194055 
L 405.294933 16.318962 
L 407.836379 18.770088 
L 410.377826 23.415523 
L 412.919272 31.266491 
L 415.460719 43.254244 
L 418.002165 59.873581 
L 420.543612 80.75762 
L 425.626505 127.804133 
L 428.167952 147.524589 
L 430.709398 159.923461 
L 433.250845 162.538563 
L 435.792291 154.831046 
L 438.333738 138.369826 
L 440.875184 116.301636 
L 443.416631 92.359868 
L 445.958077 69.849895 
L 448.499524 50.982806 
L 451.04097 36.697186 
L 453.582417 26.876647 
L 456.123863 20.75675 
L 458.66531 17.329506 
L 461.206756 15.636084 
L 463.748203 14.922047 
L 466.289649 14.680015 
L 473.913989 14.612727 
L 484.079775 14.712532 
L 486.621222 15.031699 
L 489.162668 15.91988 
L 491.704115 17.941488 
L 494.245561 21.905963 
L 496.787008 28.802379 
L 499.328454 39.613126 
L 501.869901 54.990163 
L 504.411347 74.836718 
L 509.49424 121.755424 
L 512.035687 142.845509 
L 514.577134 157.501749 
L 517.11858 162.867273 
L 519.660027 157.841979 
L 522.201473 143.457047 
L 524.74292 122.523583 
L 529.825813 75.564555 
L 532.367259 55.58309 
L 534.908706 40.050134 
L 537.450152 29.094721 
L 539.991599 22.082852 
L 542.533045 18.037205 
L 545.074492 15.965165 
L 547.615938 15.04968 
L 550.157385 14.718087 
L 555.240278 14.613661 
L 567.947511 14.676185 
L 570.488957 14.908515 
L 573.030404 15.599991 
L 575.57185 17.249969 
L 578.113297 20.604828 
L 580.654743 26.618359 
L 583.19619 36.300859 
L 585.737636 50.430974 
L 588.279083 69.153688 
L 590.820529 91.570745 
L 593.361976 115.513256 
L 595.903422 137.704214 
L 598.444869 154.409271 
L 600.986316 162.44478 
L 603.527762 160.177108 
L 606.069209 148.073692 
L 608.610655 128.542987 
L 613.693548 81.512594 
L 616.234995 60.50617 
L 618.776441 43.732816 
L 621.317888 31.595038 
L 623.859334 23.619864 
L 626.400781 18.884192 
L 628.942227 16.375086 
L 631.483674 15.217535 
L 634.02512 14.772402 
L 639.108013 14.615014 
L 651.815246 14.651544 
L 654.356693 14.816766 
L 656.898139 15.346853 
L 659.439586 16.678462 
L 661.981032 19.492338 
L 664.522479 24.696426 
L 667.063925 33.308339 
L 669.605372 46.204241 
L 672.146818 63.740655 
L 674.688265 85.331241 
L 679.771158 132.169784 
L 682.312604 150.691414 
L 684.854051 161.277494 
L 687.395498 161.801628 
L 689.936944 152.155659 
L 692.478391 134.286748 
L 695.019837 111.545619 
L 697.561284 87.654246 
L 700.10273 65.737145 
L 702.644177 47.750016 
L 705.185623 34.393781 
L 707.72707 25.387631 
L 710.268516 19.888657 
L 712.809963 16.879751 
L 715.351409 15.434693 
L 717.892856 14.847932 
L 720.434302 14.659632 
L 728.058642 14.612727 
L 735.682982 14.635414 
L 738.224428 14.749835 
L 740.765875 15.149327 
L 743.307321 16.211037 
L 745.848768 18.549114 
L 748.390214 23.017506 
L 750.931661 30.623274 
L 753.473107 42.312774 
L 756.014554 58.622998 
L 758.556 79.257107 
L 763.638893 126.314077 
L 766.18034 146.401781 
L 768.721786 159.383058 
L 771.263233 162.691087 
L 773.80468 155.644867 
L 776.346126 139.682057 
L 778.887573 117.872144 
L 781.429019 93.943102 
L 783.970466 71.254761 
L 786.511912 52.102029 
L 789.053359 37.504924 
L 791.594805 27.405657 
L 794.136252 21.06959 
L 796.677698 17.494331 
L 799.219145 15.711487 
L 801.760591 14.950635 
L 804.302038 14.688248 
L 809.384931 14.613158 
L 822.092164 14.702144 
L 824.63361 14.997553 
L 827.175057 15.832992 
L 829.716503 17.756442 
L 832.25795 21.561916 
L 834.799396 28.230796 
L 837.340843 38.754525 
L 839.882289 53.81955 
L 842.423736 73.392289 
L 850.048075 141.600882 
L 852.589522 156.789893 
L 855.130968 162.832019 
L 857.672415 158.490647 
L 860.213862 144.657918 
L 862.755308 124.050269 
L 867.838201 77.031123 
L 870.379648 56.784074 
L 872.921094 40.939634 
L 875.462541 29.692676 
L 878.003987 22.446555 
L 880.545434 18.235199 
L 883.08688 16.059545 
L 885.628327 15.087539 
L 888.169773 14.729965 
L 893.252666 14.613911 
L 905.959899 14.669065 
L 908.501346 14.882908 
L 911.042792 15.530906 
L 913.584239 17.096484 
L 916.125685 20.309786 
L 918.667132 26.114036 
L 921.208578 35.523183 
L 923.750025 49.342925 
L 926.291471 67.774012 
L 928.832918 89.998016 
L 931.374364 113.930938 
L 933.915811 136.354692 
L 936.457257 153.536473 
L 938.998704 162.222283 
L 941.54015 160.650995 
L 944.081597 149.146693 
L 946.623044 130.007629 
L 951.705937 83.031557 
L 954.247383 61.785767 
L 956.78883 44.705662 
L 959.330276 32.266158 
L 961.871723 24.039401 
L 964.413169 19.119815 
L 966.954616 16.491798 
L 969.496062 15.26682 
L 972.037509 14.78908 
L 974.578955 14.644647 
L 984.744741 14.612779 
L 989.827635 14.646823 
L 992.369081 14.797942 
L 994.910528 15.292664 
L 997.451974 16.552444 
L 999.993421 19.241407 
L 1002.534867 24.254675 
L 1005.076314 32.60879 
L 1007.61776 45.199944 
L 1010.159207 62.432703 
L 1012.700653 83.795374 
L 1017.783546 130.733131 
L 1020.324993 149.670353 
L 1022.866439 160.871124 
L 1025.407886 162.093622 
L 1027.949332 153.085648 
L 1030.490779 135.671059 
L 1033.032226 113.137274 
L 1035.573672 89.214615 
L 1038.115119 67.090651 
L 1040.656565 48.806726 
L 1043.198012 35.141791 
L 1045.739458 25.867927 
L 1048.280905 20.16659 
L 1050.822351 17.022472 
L 1053.363798 15.497868 
L 1055.905244 14.870805 
L 1058.446691 14.665761 
L 1066.07103 14.612727 
L 1073.69537 14.632403 
L 1076.236817 14.736305 
L 1078.778263 15.107451 
L 1081.31971 16.108693 
L 1083.861156 18.337545 
L 1086.402603 22.633447 
L 1088.944049 29.998354 
L 1091.485496 41.392151 
L 1094.026942 57.392083 
L 1096.568389 77.769709 
L 1101.651282 124.808511 
L 1104.192728 145.246992 
L 1106.734175 158.798935 
L 1109.275621 162.796773 
L 1111.817068 156.418431 
L 1114.358514 140.968057 
L 1116.899961 119.433387 
L 1121.982854 72.675832 
L 1124.524301 53.241905 
L 1127.065747 38.332901 
L 1129.607194 27.951486 
L 1132.14864 21.394681 
L 1134.690087 17.667044 
L 1137.231533 15.791338 
L 1139.77298 14.981356 
L 1142.314426 14.697296 
L 1147.397319 14.613291 
L 1160.104552 14.692666 
L 1162.645999 14.965722 
L 1165.187445 15.750845 
L 1167.728892 17.579685 
L 1170.270338 21.230585 
L 1172.811785 27.676452 
L 1175.353231 37.916373 
L 1177.894678 52.669393 
L 1180.436124 71.963302 
L 1182.977571 94.736999 
L 1185.519017 118.653994 
L 1188.060464 140.328404 
L 1190.60191 156.036726 
L 1193.143357 162.749793 
L 1195.684803 159.096428 
L 1198.22625 145.828322 
L 1200.767696 125.563161 
L 1205.85059 78.511729 
L 1208.392036 58.005067 
L 1210.933483 41.849861 
L 1213.474929 30.308543 
L 1216.016376 22.823751 
L 1218.557822 18.442172 
L 1221.099269 16.159181 
L 1223.640715 15.128041 
L 1226.182162 14.742925 
L 1231.265055 14.614214 
L 1243.972287 14.662618 
L 1246.513734 14.85915 
L 1249.055181 15.465805 
L 1251.596627 16.950238 
L 1254.138074 20.026226 
L 1256.67952 25.625804 
L 1259.220967 34.765331 
L 1261.762413 48.275755 
L 1264.30386 66.411679 
L 1266.845306 88.433326 
L 1269.386753 112.342123 
L 1271.928199 134.981697 
L 1274.469646 152.625342 
L 1277.011092 161.953392 
L 1279.552539 161.079973 
L 1282.093985 150.185298 
L 1284.635432 131.453897 
L 1292.259772 63.084346 
L 1294.801218 45.69947 
L 1297.342665 32.956174 
L 1299.884111 24.473671 
L 1302.425558 19.365569 
L 1304.967004 16.614656 
L 1307.508451 15.319335 
L 1310.049897 14.807167 
L 1312.591344 14.64912 
L 1322.75713 14.612762 
L 1327.840023 14.642587 
L 1330.381469 14.78057 
L 1332.922916 15.241784 
L 1335.464363 16.432688 
L 1338.005809 19.000756 
L 1340.547256 23.82781 
L 1343.088702 31.92825 
L 1345.630149 44.21662 
L 1348.171595 61.143577 
L 1350.713042 82.270601 
L 1355.795935 129.277533 
L 1358.337381 148.614433 
L 1360.878828 160.419638 
L 1363.420274 162.339345 
L 1365.961721 153.977714 
L 1368.503167 137.032457 
L 1371.044614 114.722978 
L 1373.58606 90.783427 
L 1376.127507 68.461709 
L 1378.668954 49.884344 
L 1381.2104 35.909532 
L 1383.751847 26.364167 
L 1383.751847 26.364167 
" style="fill:none;stroke:#0000ff;stroke-linecap:square;stroke-width:1.5;"/>
   </g>
   <g id="patch_3">
    <path d="M 52.160938 170.28 
L 52.160938 7.2 
" style="fill:none;stroke:#000000;stroke-linecap:square;stroke-linejoin:miter;stroke-width:0.8;"/>
   </g>
   <g id="patch_4">
    <path d="M 1447.160938 170.28 
L 1447.160938 7.2 
" style="fill:none;stroke:#000000;stroke-linecap:square;stroke-linejoin:miter;stroke-width:0.8;"/>
   </g>
   <g id="patch_5">
    <path d="M 52.160938 170.28 
L 1447.160938 170.28 
" style="fill:none;stroke:#000000;stroke-linecap:square;stroke-linejoin:miter;stroke-width:0.8;"/>
   </g>
   <g id="patch_6">
    <path d="M 52.160938 7.2 
L 1447.160938 7.2 
" style="fill:none;stroke:#000000;stroke-linecap:square;stroke-linejoin:miter;stroke-width:0.8;"/>
   </g>
  </g>
 </g>
 <defs>
  <clipPath id="p9699aa1e5e">
   <rect height="163.08" width="1395" x="52.160938" y="7.2"/>
  </clipPath>
 </defs>
</svg>
